<svg width="23" height="16" viewBox="0 0 23 16" fill="none" xmlns="http://www.w3.org/2000/svg">
<path d="M1.15625 7C0.603965 7 0.15625 7.44772 0.15625 8C0.15625 8.55228 0.603965 9 1.15625 9V7ZM21.9924 8.70711C22.3829 8.31658 22.3829 7.68342 21.9924 7.29289L15.6284 0.928932C15.2379 0.538408 14.6047 0.538408 14.2142 0.928932C13.8237 1.31946 13.8237 1.95262 14.2142 2.34315L19.8711 8L14.2142 13.6569C13.8237 14.0474 13.8237 14.6805 14.2142 15.0711C14.6047 15.4616 15.2379 15.4616 15.6284 15.0711L21.9924 8.70711ZM1.15625 9H21.2853V7H1.15625V9Z" fill="#232536"/>
</svg>
